# xmcd
#
# Track frame offsets:
#	150
#	23917
#	41030
#	64797
#
# Disc length: 1097 seconds
#
# Revision: 0
# Processed by: cddbd v1.5.2PL0 Copyright (c) Steve Scherf et al.
# Submitted via: audiograbber 1.83.01
#
DISCID=2f044704
DTITLE=Black Moon - Worldwind (This Is What It Sounds Like)
DYEAR=1999
DGENRE=Rap
TTITLE0=Worldwind (Remix)
TTITLE1=Worldwind (This Is What It Sounds Like)
TTITLE2=Worldwind (Instrumental)
TTITLE3=Worldwind (This Is What It Sounds Like) [Instrumental]
EXTD=www.RapMusicGuide.com
EXTT0=
EXTT1=
EXTT2=
EXTT3=
PLAYORDER=
